#!OML:ASF F:\VICON\USERDATA\INSTALL\rory3\rory3.ASF
:FULLY-SPECIFIED
:DEGREES
1544
root 0.335295 16.5487 28.0127 -500.382 -42.5624 166.64
lowerback -8.25652 -6.74264 5.64536
upperback -11.5624 -10.2523 2.2379
thorax -8.25693 -5.95774 -0.691291
lowerneck -14.0672 -4.58381 -8.3466
upperneck 34.826 -9.5886 5.14886
head 15.1581 -5.49437 1.69466
rclavicle -1.78906e-015 -5.1684e-014
rhumerus 24.2779 -35.0059 -22.02
rradius 31.1934
rwrist -46.3683
rhand -15.8964 7.62634
rfingers 7.12502
rthumb 10.3001 -22.1014
lclavicle -1.78906e-015 -5.1684e-014
lhumerus 16.1348 1.1665 10.5883
lradius 21.6647
lwrist -30.8002
lhand 24.4449 27.2743
lfingers 7.12502
lthumb 48.651 49.1775
rfemur -236.77 -166.891 199.821
rtibia 54.3117
rfoot 303.581 -393.667
rtoes 44.9014
lfemur -43.0949 -12.802 -16.6032
ltibia 38.9191
lfoot -29.7253 16.0993
ltoes -16.9915
1545
root 0.303902 16.5679 28.1087 -500.807 -42.5646 167.338
lowerback -7.69438 -6.50392 5.10733
upperback -11.4166 -9.8345 2.37944
thorax -8.2497 -5.67522 -0.213347
lowerneck -13.8154 -4.88306 -8.09462
upperneck 34.344 -10.0472 5.25495
head 14.9073 -5.61782 1.62942
rclavicle 8.92543e-014 3.33958e-014
rhumerus 25.3135 -35.8114 -23.5035
rradius 30.8794
rwrist -45.9144
rhand -15.3365 7.86174
rfingers 7.12502
rthumb 10.8402 -21.8385
lclavicle 8.92543e-014 3.33958e-014
lhumerus 16.6813 0.412558 10.7171
lradius 22.0274
lwrist -29.9974
lhand 25.5767 27.0572
lfingers 7.12502
lthumb 49.6901 48.4411
rfemur -236.64 -167.055 199.999
rtibia 53.6409
rfoot 304.04 -393.583
rtoes 44.991
lfemur -44.3428 -13.4717 -16.4459
ltibia 39.3648
lfoot -31.9994 18.2453
ltoes -11.278
1546
root 0.276553 16.5939 28.2137 -501.514 -42.5793 168.605
lowerback -7.05231 -6.15725 5.01696
upperback -11.3357 -9.28987 2.62332
thorax -8.42943 -5.3682 0.156393
lowerneck -13.5169 -5.18948 -7.79226
upperneck 33.8166 -10.5014 5.302
head 14.6198 -5.74577 1.53591
rclavicle 5.92378e-014 1.43125e-014
rhumerus 26.3764 -36.3104 -24.8922
rradius 30.7983
rwrist -46.3196
rhand -15.6622 8.16912
rfingers 7.12502
rthumb 10.526 -21.5473
lclavicle 5.92378e-014 1.43125e-014
lhumerus 17.263 -0.377537 10.7962
lradius 22.2412
lwrist -29.2295
lhand 26.4129 26.9967
lfingers 7.12502
lthumb 50.4551 47.9772
rfemur -236.588 -167.484 200.602
rtibia 52.8871
rfoot 304.347 -393.31
rtoes 45.3651
lfemur -45.6474 -14.0587 -15.6416
ltibia 39.8335
lfoot -33.5769 20.5165
ltoes -8.41694
1547
root 0.249077 16.6197 28.3195 -502.167 -42.2146 169.849
lowerback -6.32009 -5.81448 4.80498
upperback -11.3522 -8.75859 2.87372
thorax -8.76009 -5.067 0.616443
lowerneck -13.4086 -5.32664 -7.6923
upperneck 33.4977 -10.7085 5.45775
head 14.4729 -5.78639 1.55554
rclavicle -7.56376e-014 -1.19271e-014
rhumerus 27.8965 -36.5415 -26.6413
rradius 30.5388
rwrist -45.9848
rhand -16.0838 8.50423
rfingers 7.12502
rthumb 10.1193 -21.2324
lclavicle -7.56376e-014 -1.19271e-014
lhumerus 17.4037 -1.77325 10.3405
lradius 22.5872
lwrist -28.2003
lhand 27.0886 26.4969
lfingers 7.12502
lthumb 51.0715 47.1383
rfemur -236.615 -168.273 200.921
rtibia 52.0971
rfoot 304.722 -393.402
rtoes 45.6419
lfemur -46.7122 -14.1138 -15.1623
ltibia 40.3311
lfoot -33.6776 22.995
ltoes -8.48932
1548
root 0.207453 16.6511 28.4038 -502.718 -41.8595 170.944
lowerback -6.05511 -5.5396 4.4749
upperback -11.2309 -8.3408 3.12518
thorax -8.66406 -4.8099 1.05706
lowerneck -13.5293 -5.45019 -7.56464
upperneck 33.2696 -10.8403 5.4945
head 14.4027 -5.79693 1.52676
rclavicle 1.25234e-014 5.08889e-014
rhumerus 29.7963 -36.7991 -28.65
rradius 30.0206
rwrist -45.1055
rhand -16.2275 8.59725
rfingers 7.12502
rthumb 9.98066 -21.1461
lclavicle 1.25234e-014 5.08889e-014
lhumerus 17.5001 -3.22679 9.74006
lradius 23.3039
lwrist -26.644
lhand 27.9484 26.3603
lfingers 7.12502
lthumb 51.8534 46.5526
rfemur -236.533 -168.783 201.239
rtibia 51.2542
rfoot 305.312 -393.458
rtoes 45.6285
lfemur -47.3126 -14.2154 -14.7405
ltibia 40.715
lfoot -33.5525 24.7487
ltoes -9.07259
1549
root 0.152827 16.6714 28.5112 -502.891 -41.4765 172.139
lowerback -6.49033 -5.08098 4.32222
upperback -11.0111 -7.72835 3.4279
thorax -8.08132 -4.47682 1.35381
lowerneck -13.6452 -5.73297 -7.28432
upperneck 32.8105 -11.1201 5.37031
head 14.218 -5.85658 1.3873
rclavicle 1.61016e-014 4.13472e-014
rhumerus 32.1068 -37.7814 -30.7951
rradius 29.379
rwrist -43.9284
rhand -16.1863 8.7341
rfingers 7.12502
rthumb 10.0204 -21.0074
lclavicle 1.61016e-014 4.13472e-014
lhumerus 18.0871 -3.76684 9.7012
lradius 24.0019
lwrist -25.2399
lhand 29.2314 26.8874
lfingers 7.12502
lthumb 53.0146 46.3705
rfemur -237.088 -168.995 201.821
rtibia 50.4831
rfoot 306.739 -393.715
rtoes 45.2333
lfemur -48.2393 -15.0968 -13.6972
ltibia 40.9532
lfoot -34.323 26.2529
ltoes -9.55354
1550
root 0.104555 16.7051 28.587 -503.623 -40.9532 173.255
lowerback -6.35849 -4.71716 3.84601
upperback -10.8011 -7.19585 3.67176
thorax -7.81354 -4.15216 1.84355
lowerneck -13.4768 -5.92388 -7.1458
upperneck 32.5759 -11.3927 5.34608
head 14.0878 -5.95381 1.31813
rclavicle 4.39314e-014 2.22639e-014
rhumerus 33.8613 -37.8513 -32.363
rradius 28.9761
rwrist -43.4594
rhand -16.7581 8.90909
rfingers 7.12502
rthumb 9.46871 -20.8582
lclavicle 4.39314e-014 2.22639e-014
lhumerus 18.4486 -5.14564 9.12647
lradius 24.9652
lwrist -23.208
lhand 30.6127 27.5487
lfingers 7.12502
lthumb 54.2569 46.2116
rfemur -236.746 -169.758 201.907
rtibia 49.7497
rfoot 307.962 -394.05
rtoes 44.7406
lfemur -48.1218 -16.2942 -12.5706
ltibia 40.9347
lfoot -35.6387 27.4413
ltoes -9.6139
1551
root 0.0547672 16.7303 28.6679 -504.037 -40.1696 174.198
lowerback -6.29643 -4.34939 3.4431
upperback -10.7077 -6.68751 3.79313
thorax -7.67618 -3.862 2.17729
lowerneck -13.7476 -5.98398 -6.96206
upperneck 32.688 -11.4721 5.2266
head 14.1825 -5.96515 1.21468
rclavicle -9.24349e-014 2.06736e-014
rhumerus 35.3202 -37.1705 -33.5083
rradius 28.6536
rwrist -43.396
rhand -17.7854 8.88364
rfingers 7.12502
rthumb 8.47746 -20.9262
lclavicle -9.24349e-014 2.06736e-014
lhumerus 18.7053 -6.33598 8.4455
lradius 26.0753
lwrist -21.5879
lhand 32.2423 28.0304
lfingers 7.12502
lthumb 55.7108 45.6421
rfemur -236.703 -170.74 201.614
rtibia 49.0829
rfoot 309.451 -394.175
rtoes 44.4635
lfemur -48.19 -17.5137 -11.4997
ltibia 40.7888
lfoot -37.1555 28.4842
ltoes -9.6018
1552
root 0.00594885 16.7526 28.7461 -504.093 -39.0577 174.708
lowerback -6.44479 -3.98041 2.57036
upperback -10.5481 -6.17695 3.86689
thorax -7.31068 -3.53744 2.69009
lowerneck -14.1307 -6.10861 -6.8694
upperneck 32.7336 -11.5834 5.10864
head 14.2817 -5.9891 1.11827
rclavicle 1.11518e-013 -4.45278e-014
rhumerus 36.8862 -36.5505 -34.5684
rradius 28.4493
rwrist -43.4328
rhand -18.8381 8.88633
rfingers 7.12502
rthumb 7.46146 -20.9621
lclavicle 1.11518e-013 -4.45278e-014
lhumerus 19.0958 -7.64879 7.60317
lradius 27.274
lwrist -19.8273
lhand 33.7946 28.4567
lfingers 7.12502
lthumb 57.0823 44.9739
rfemur -236.76 -171.985 200.669
rtibia 48.442
rfoot 310.736 -394.349
rtoes 44.2347
lfemur -48.2814 -18.7473 -10.8163
ltibia 40.5358
lfoot -38.9065 29.3838
ltoes -9.38833
1553
root -0.0440049 16.7728 28.815 -504.25 -38.0299 175.324
lowerback -6.6193 -3.55574 1.84941
upperback -10.517 -5.61249 3.86516
thorax -7.11802 -3.20997 3.06285
lowerneck -13.9069 -6.20312 -6.8583
upperneck 32.7145 -11.7983 5.19815
head 14.2476 -6.07957 1.12264
rclavicle -1.39149e-014 -3.97569e-014
rhumerus 38.3846 -36.2367 -35.8682
rradius 28.1191
rwrist -42.5514
rhand -19.1865 8.67598
rfingers 7.12502
rthumb 7.12509 -21.1841
lclavicle -1.39149e-014 -3.97569e-014
lhumerus 19.6858 -9.02663 6.68165
lradius 28.371
lwrist -18.5233
lhand 34.8335 27.7927
lfingers 7.12502
lthumb 57.992 43.5213
rfemur -236.795 -173.213 199.84
rtibia 47.8744
rfoot 311.982 -394.8
rtoes 43.9061
lfemur -48.3057 -19.7507 -10.0937
ltibia 40.314
lfoot -40.9828 29.314
ltoes -7.14057
